# xmcd CD database file
#
# Track frame offsets:
#	150
#	31612
#	69385
#	116752
#	147175
#	178142
#	206505
#	230135
#	265097
#	285336
#
# Disc length: 4049 seconds
#
# Revision: 0
# Processed by: cddbd v1.5.2PL0 Copyright (c) Steve Scherf et al.
# Submitted via: CDex 1.70beta2
#
DISCID=8d0fcf0a
DTITLE=Dexter Gordon - The complete Blue Note60's sessions vol.6
DYEAR=1900
DGENRE=Jazz
TTITLE0=Le coiffeur
TTITLE1=Manha de Carnaval
TTITLE2=Flick of trick
TTITLE3=Everybody's somebody's a fool
TTITLE4=Very saxily yours
TTITLE5=Shiny stockings
TTITLE6=Who can I turn to
TTITLE7=Heartaches
TTITLE8=Dexter on bird
TTITLE9=It all began
EXTD=
EXTT0=
EXTT1=
EXTT2=
EXTT3=
EXTT4=
EXTT5=
EXTT6=
EXTT7=
EXTT8=
EXTT9=
PLAYORDER=
